<svg xmlns="http://www.w3.org/2000/svg" xmlns:xlink="http://www.w3.org/1999/xlink"><defs><symbol id="info" viewBox="0 0 18.969 18.969"><path data-name="Forma 1" class="cls-1" d="M9.494.009a9.485 9.485 0 1 0 9.486 9.485A9.486 9.486 0 0 0 9.494.009zm1.975 14.7q-.732.288-1.168.44a3.083 3.083 0 0 1-1.013.152 2.027 2.027 0 0 1-1.379-.433 1.4 1.4 0 0 1-.491-1.1 4.027 4.027 0 0 1 .036-.53 6.61 6.61 0 0 1 .118-.609l.611-2.158c.054-.209.1-.405.137-.588a2.615 2.615 0 0 0 .055-.509A.782.782 0 0 0 8.2 8.8a.968.968 0 0 0-.648-.16 1.712 1.712 0 0 0-.486.072c-.165.051-.308.1-.425.142l.159-.665q.6-.244 1.148-.418A3.39 3.39 0 0 1 8.987 7.6a1.983 1.983 0 0 1 1.359.426 1.415 1.415 0 0 1 .477 1.1c0 .094-.011.26-.033.5a3.341 3.341 0 0 1-.122.652l-.608 2.148q-.074.26-.134.59a3.1 3.1 0 0 0-.059.5.724.724 0 0 0 .192.584 1.074 1.074 0 0 0 .663.156 1.886 1.886 0 0 0 .5-.079 2.8 2.8 0 0 0 .406-.136zm-.107-8.734a1.452 1.452 0 0 1-1.024.395 1.468 1.468 0 0 1-1.028-.395 1.262 1.262 0 0 1-.428-.958 1.275 1.275 0 0 1 .428-.96 1.457 1.457 0 0 1 1.028-.4 1.441 1.441 0 0 1 1.024.4 1.293 1.293 0 0 1 0 1.918z"/></symbol><symbol id="search" viewBox="0 0 17.219 17.32"><path data-name="Search (and thou shall find)" class="cls-1" d="M6.457 2.17A4.328 4.328 0 0 1 9.957 9l-.423.59-.594.43a4.314 4.314 0 1 1-2.485-7.85m0-2.16a6.485 6.485 0 0 0 0 12.97 6.345 6.345 0 0 0 3.731-1.2l5.179 5.21a1.08 1.08 0 1 0 1.523-1.53l-5.179-5.21A6.488 6.488 0 0 0 6.455.01z"/></symbol><symbol id="arrow" viewBox="0 0 12.563 10.97"><path class="cls-1" d="M6.51 1.32l4.152 4.15L6.51 9.62a.786.786 0 0 0 1.112 1.11l4.707-4.7a.8.8 0 0 0 0-1.12L7.622.21A.786.786 0 0 0 6.51 1.32zM.785 4.69h10.2v1.57H.785A.791.791 0 0 1 0 5.47a.783.783 0 0 1 .785-.78z"/></symbol><symbol id="book" viewBox="0 0 16.875 19.25"><path data-name="Book of Wisdom" class="cls-1" d="M15.658-.01H2.419A2.409 2.409 0 0 0 .012 2.4v14.44a2.409 2.409 0 0 0 2.407 2.41h13.239a1.206 1.206 0 0 0 1.2-1.21V1.2a1.206 1.206 0 0 0-1.2-1.21zm-1.2 16.25a.6.6 0 0 1-.6.6H3.611a1.189 1.189 0 0 1-1.192-1.19v-.02a1.2 1.2 0 0 1 1.192-1.2h10.242a.6.6 0 0 1 .6.61v1.2zm0-4.78a.6.6 0 0 1-.6.6H5.433a.6.6 0 0 1-.6-.6V3a.6.6 0 0 1 .6-.6h8.425a.6.6 0 0 1 .6.6v8.46zm-3.009-6.65H7.837a.6.6 0 0 0-.6.6v1.2a.6.6 0 0 0 .6.6h3.611a.6.6 0 0 0 .6-.6v-1.2a.6.6 0 0 0-.602-.6z"/></symbol><symbol id="printer" viewBox="0 0 23.188 20.62"><path class="cls-1" d="M15.463 3.86H7.725a1.292 1.292 0 0 1-1.29-1.29V1.28a1.292 1.292 0 0 1 1.29-1.29h7.738a1.292 1.292 0 0 1 1.29 1.29v1.29a1.292 1.292 0 0 1-1.29 1.29zm1.29 14.19H6.435v-3.87H3.856v5.16a1.291 1.291 0 0 0 1.29 1.29h12.9a1.291 1.291 0 0 0 1.29-1.29v-5.16h-2.579v3.87zm3.868-15.48H1.277a1.291 1.291 0 0 0-1.29 1.29v10.32a1.291 1.291 0 0 0 1.29 1.29h5.158v-2.58h10.318v2.58h5.158a1.292 1.292 0 0 0 1.29-1.29V3.86a1.292 1.292 0 0 0-1.29-1.29h-1.29zm0 3.87v5.8a.646.646 0 0 1-.644.65h-.645V11.6a1.291 1.291 0 0 0-1.29-1.29h-12.9a1.291 1.291 0 0 0-1.29 1.29v1.29h-.645a.647.647 0 0 1-.645-.65V5.8a.647.647 0 0 1 .645-.65h16.766a.646.646 0 0 1 .644.65v.64z"/></symbol><symbol id="home" viewBox="0 0 12.281 10.94"><path data-name="European Home" class="cls-1" d="M6.145 1.45l4.635 3.27a.34.34 0 0 1 .144.28v4.23a.339.339 0 0 1-.341.34H1.707a.34.34 0 0 1-.342-.34V5a.339.339 0 0 1 .145-.28l4.635-3.27M6.269.02H6.02a.688.688 0 0 0-.394.12L.289 3.91A.679.679 0 0 0 0 4.47v5.79a.685.685 0 0 0 .683.68h10.924a.685.685 0 0 0 .683-.68V4.47a.679.679 0 0 0-.289-.56L6.663.14a.688.688 0 0 0-.394-.12zM5.121 5.48H3.072a.339.339 0 0 0-.341.34v5.12h2.731V5.82a.339.339 0 0 0-.341-.34zm4.1 1.36H7.173a.34.34 0 0 1-.342-.34v-.68a.34.34 0 0 1 .342-.34h2.048a.34.34 0 0 1 .342.34v.68a.34.34 0 0 1-.346.34z"/></symbol><symbol id="user" viewBox="0 0 12.25 12.25"><path class="cls-1" d="M9.734 5.09a3.748 3.748 0 0 0 .219-1.26 3.828 3.828 0 1 0-7.656 0 3.748 3.748 0 0 0 .219 1.26A4.6 4.6 0 0 0 0 9.19v2.29a.765.765 0 0 0 .767.77h10.716a.765.765 0 0 0 .767-.77V9.19a4.6 4.6 0 0 0-2.516-4.1zM6.125 1.53a2.3 2.3 0 1 1-2.3 2.3 2.3 2.3 0 0 1 2.3-2.3zm4.594 9.19H1.531V9.19a3.073 3.073 0 0 1 1.775-2.78 3.8 3.8 0 0 0 5.638 0 3.073 3.073 0 0 1 1.775 2.78v1.53z"/></symbol><symbol id="fb" viewBox="0 0 29.5 29.5"><path data-name="Forma 1" class="cls-1" d="M14.75.01A14.75 14.75 0 1 0 29.5 14.76 14.745 14.745 0 0 0 14.75.01zm3.81 14.74l-2.41.01-.01 8.85h-3.31v-8.85h-2.22v-3.05h2.22l-.01-1.8c0-2.49.68-4 3.61-4h2.44v3.05h-1.53c-1.14 0-1.19.42-1.19 1.22l-.01 1.53h2.75z"/></symbol><symbol id="twitter" viewBox="0 0 27.56 27.56"><path data-name="Forma 1" class="cls-1" d="M13.78 0a13.78 13.78 0 1 0 13.78 13.78A13.793 13.793 0 0 0 13.78 0zm6.15 10.63c.01.14.01.27.01.41a9.017 9.017 0 0 1-13.89 7.6 6.533 6.533 0 0 0 4.7-1.31 3.2 3.2 0 0 1-2.97-2.21 3.053 3.053 0 0 0 .6.06 3.336 3.336 0 0 0 .84-.11 3.176 3.176 0 0 1-2.55-3.11v-.04a3.2 3.2 0 0 0 1.44.4A3.174 3.174 0 0 1 6.7 9.68a3.216 3.216 0 0 1 .43-1.6 9.024 9.024 0 0 0 6.54 3.32 2.979 2.979 0 0 1-.09-.73 3.176 3.176 0 0 1 5.49-2.17 6.265 6.265 0 0 0 2.02-.77 3.187 3.187 0 0 1-1.4 1.76 6.541 6.541 0 0 0 1.82-.5 6.479 6.479 0 0 1-1.58 1.64z"/></symbol><symbol id="instagram" viewBox="0 0 29.6 29.59"><path data-name="Forma 1" class="cls-1" d="M14.81-.01a14.8 14.8 0 1 0 14.79 14.8A14.8 14.8 0 0 0 14.81-.01zm7.75 21.99a.559.559 0 0 1-.56.56H7.61a.566.566 0 0 1-.56-.56V7.6a.566.566 0 0 1 .56-.56H22a.559.559 0 0 1 .56.56v14.38zm-10.85-7.19a3.1 3.1 0 1 0 3.1-3.1 3.1 3.1 0 0 0-3.1 3.1zm6.2-6.2h3.1v3.1h-3.1v-3.1zm1.51 6.2a4.615 4.615 0 0 1-9.23 0 2.938 2.938 0 0 1 .11-.78H8.6v6.98h12.41v-6.98h-1.69a3.4 3.4 0 0 1 .1.78z"/></symbol></defs><view id="view-info" viewBox="0 0 50 50"></view><view id="view-search" viewBox="50 0 49.71 50"></view><view id="view-arrow" viewBox="100 0 57.26 50"></view><view id="view-book" viewBox="200 0 43.83 50"></view><view id="view-printer" viewBox="250 0 56.23 50"></view><view id="view-home" viewBox="350 0 56.13 50"></view><view id="view-user" viewBox="450 0 50 50"></view><view id="view-fb" viewBox="500 0 50 50"></view><view id="view-twitter" viewBox="550 0 50 50"></view><view id="view-instagram" viewBox="600 0 50.02 50"></view><use id="info" xlink:href="#info" width="50" height="50" x="0" y="0"></use><use id="search" xlink:href="#search" width="49.71" height="50" x="50" y="0"></use><use id="arrow" xlink:href="#arrow" width="57.26" height="50" x="100" y="0"></use><use id="book" xlink:href="#book" width="43.83" height="50" x="200" y="0"></use><use id="printer" xlink:href="#printer" width="56.23" height="50" x="250" y="0"></use><use id="home" xlink:href="#home" width="56.13" height="50" x="350" y="0"></use><use id="user" xlink:href="#user" width="50" height="50" x="450" y="0"></use><use id="fb" xlink:href="#fb" width="50" height="50" x="500" y="0"></use><use id="twitter" xlink:href="#twitter" width="50" height="50" x="550" y="0"></use><use id="instagram" xlink:href="#instagram" width="50.02" height="50" x="600" y="0"></use></svg>