<svg xmlns="http://www.w3.org/2000/svg" viewBox="0 0 1559 904.14"><defs><style>.cls-1{fill:#2f2933}.cls-2,.cls-9{fill:none;stroke:#10273d;stroke-width:8px}.cls-2{stroke-linecap:round;stroke-linejoin:round}.cls-3{fill:#fff}.cls-4{fill:#10273d}.cls-5{fill:#29d9c2}.cls-6{fill:#bdf271}.cls-7{fill:#a6d1e7}.cls-8{fill:#01a2a6}.cls-10{fill:#a5d650}</style></defs><title>city</title><path class="cls-1" d="M2721.46 6126.88a4 4 0 0 1-3.8-2.76 43.89 43.89 0 0 1-2.17-13.64 44 44 0 0 1 25-39.7 61.5 61.5 0 0 1 61.46-59.29 61.43 61.43 0 0 1 50.12 25.86 35.12 35.12 0 0 1 13.63-2.74 35.26 35.26 0 0 1 33.56 24.45q1.33-.07 2.69-.08a51.5 51.5 0 0 1 51.5 51.5 51.59 51.59 0 0 1-1.78 13.45 4 4 0 0 1-3.86 3h-226.35zm226.37-4zm-3.17-4a43.42 43.42 0 0 0 .82-8.4 43.35 43.35 0 0 0-12.74-30.76A43.35 43.35 0 0 0 2902 6067a44 44 0 0 0-5.21.32 4 4 0 0 1-4.39-3.14 27.26 27.26 0 0 0-26.65-21.56 27.11 27.11 0 0 0-13.1 3.35 4 4 0 0 1-5.31-1.38 53.45 53.45 0 0 0-45.34-25.09 53.3 53.3 0 0 0-37.83 15.67 53.32 53.32 0 0 0-15.67 37.83v.39a4 4 0 0 1-2.5 3.73 36 36 0 0 0-22.5 33.37 35.92 35.92 0 0 0 1 8.4h220.17z" transform="translate(-2382 -5675.78)" id="referensi"/><g id="awan_segi6" data-name="awan + segi6"><path class="cls-2" d="M3023.81 6043.64a12 12 0 0 1-12 12H2978a12 12 0 0 1-12-12 12 12 0 0 1 12-12h33.72a12 12 0 0 1 12 12zm671.64-67.34a44.79 44.79 0 0 0-20.21 4.8 31.5 31.5 0 0 0-26.75-29.77 66 66 0 0 0-125.55-8h-1.51a63 63 0 0 0-60.84 46.62 76.57 76.57 0 0 0-82.35 37.39H3740a44.95 44.95 0 0 0-44.59-51z" transform="translate(-2382 -5675.78)"/><path class="cls-3" d="M3609.27 5904l-12 148.49 78 3s3-127.49-7.5-145.49-58.5-6-58.5-6z" transform="translate(-2382 -5675.78)"/><circle class="cls-4" cx="837.29" cy="202.7" r="4.5"/><circle class="cls-4" cx="539.39" cy="190.52" r="4.5"/><circle class="cls-4" cx="953.43" cy="4.5" r="4.5"/><circle class="cls-4" cx="990.94" cy="270.03" r="4.5"/><circle class="cls-4" cx="876.92" cy="327.03" r="4.5"/><circle class="cls-4" cx="1158.95" cy="114.01" r="4.5"/><circle class="cls-4" cx="534.89" cy="291.03" r="4.5"/><circle class="cls-4" cx="293.37" cy="496.55" r="4.5"/><circle class="cls-4" cx="356.37" cy="162.02" r="4.5"/><circle class="cls-4" cx="611.4" cy="37.5" r="4.5"/><circle class="cls-5" cx="1346.47" cy="433.54" r="4.5"/><circle class="cls-5" cx="776.41" cy="64.51" r="4.5"/><circle class="cls-5" cx="678.9" cy="207.02" r="4.5"/><circle class="cls-5" cx="252.86" cy="249.03" r="4.5"/></g><g id="gunung"><path class="cls-3" d="M3253 6197.92s-118-138-164-190c-50.46-57-69.73 17.07-96 10-52-14-254 258-260 262" transform="translate(-2382 -5675.78)"/><path class="cls-6" d="M3023 6001.92s-34 104-34 126 16 54 16 54l-22-16s4 14 4 26 32 26 30 42 18 16 18 16l-8 26 20.67 2.67 32.46-14.26-35.13-2.41 81.33-40.67 112-2.67 6.67-26.67s-94-110-118-136-56-76-76-68-28 14.01-28 14.01z" transform="translate(-2382 -5675.78)"/><path class="cls-1" d="M2729.67 6282.14a4 4 0 0 1 .86-5.37l.15-.15c.2-.22.52-.57.92-1 .8-.93 1.92-2.28 3.31-4 2.79-3.43 6.67-8.33 11.45-14.37 9.57-12.08 22.75-28.77 38.12-47.79 30.74-38 70.23-85.38 107.21-124 24.68-25.73 48.17-47.56 67.56-60.29 11.13-7.23 20.84-11.7 29.55-11.78a20.09 20.09 0 0 1 5.23.66 9.81 9.81 0 0 0 2.58.34 15.07 15.07 0 0 0 7.52-2.42 59.69 59.69 0 0 0 8.88-6.77c6.29-5.52 13.12-12.51 21.31-17.42a36 36 0 0 1 18.6-5.6c11.73 0 24.51 6.6 39.07 23.08 46.05 52.06 164 190 164 190.05a4 4 0 0 1-.44 5.64 4 4 0 0 1-5.64-.44l-19.15-22.37c-11.78-13.75-28-32.62-45.59-53.12-35.24-41-76.25-88.49-99.21-114.46-13.87-15.65-24.58-20.39-33.08-20.38-7.64 0-14.57 3.86-21.37 9.31-6.79 5.42-13.15 12.22-19.92 17.11-4.51 3.23-9.41 5.76-15 5.78a18 18 0 0 1-4.65-.62 12 12 0 0 0-3.15-.39c-5.3-.06-13.33 3-22.76 8.93-9.45 5.9-20.36 14.53-32.1 25-23.5 21-50.34 49.65-76.47 79.42-52.28 59.59-101.68 123.81-116.84 142.44-2.05 2.52-3.41 4.15-4.38 5.13a6.52 6.52 0 0 1-1 .89 4 4 0 0 1-2.21.67 4 4 0 0 1-3.33-1.78z" transform="translate(-2382 -5675.78)"/><path class="cls-6" d="M3439 6099.92s-5 32-5 41 15 11 18 22 7 34 7 34-12-28-18-31a72 72 0 0 1-10-6s11 17 12 28 7 25 7 25 2 23 3 35 23 32 23 32h174s-112.76-169.18-177-184c-26-6-34 4-34 4z" transform="translate(-2382 -5675.78)"/><path class="cls-2" d="M3128.43 6328.34s198.86-213.88 225.86-225.88 36 15 106.49-7.5c60.3-19.24 234.7 239.38 234.7 239.38z" transform="translate(-2382 -5675.78)"/><path class="cls-6" d="M3323 6277.92s8-46 10-51 24-30 27-41 9-29 9-29-5 51-13 67-3 54-3 54zm57-2s7-41 7-47 6-50 7-61 5-40 5-40 4 79 2 93 1 20 2 26-2 30-2 30z" transform="translate(-2382 -5675.78)"/><path class="cls-3" d="M3496.78 6169.46s12 7.5 15 27 21 28.5 21 28.5l-27-12a97.29 97.29 0 0 0-9-43.5zM3052 6045.92s31 16 34 31a159.42 159.42 0 0 1 2.8 29.55s12 0 15 6 16.5 37.5 16.5 37.5-22.5-25.5-28.5-30-11.8-41.55-14.8-46-25-28.05-25-28.05zm16 201s-25-22-27-40-9-36-9-36l-27-35s41 20 43 31 32 78 32 78z" transform="translate(-2382 -5675.78)"/><path class="cls-6" d="M529 600.14l40-158-18 164-22-6zm-106.62 2.92l69.01-72.01-45.01 66.01-24 6z"/></g><path class="cls-3" d="M721 544.14l64-30 71.33 28.66-15.33 6.67 64.67 36.67h-27.34l31.34 16.66H1214l2-75.66-1-30 78 119-279 72-331-26 38-118z" id="gunung_putih" data-name="gunung putih"/><g id="walikota"><path class="cls-5" d="M657.28 603.67l-329.99-3-109.49 94h421.28v-57.53l-33-2 51.2-31.47zm252.52 0l329.98-3 109.5 94H928v-57.53l33-2-51.2-31.47z"/><path class="cls-5" d="M680 598.14h184l66 36 26-2-82-46-182-1-12 13z"/><path class="cls-5" d="M740 546.14h88l69 36-29 4-52-28h-90l14-12zm43-29l17 28 44-4-61-24zm-136 139h280l1-19H645l2 19z"/><path class="cls-5" d="M713 667.14h141l-16-14-104 3-21 11zm111.33 45.67v45.33h59.34v-47.33l-59.34 2zm-66.66 0v45.33H817v-47.33l-59.33 2zm-66 0v45.33H751v-47.33l-59.33 2zm2 91.41v77.42H706v-80.83l-12.33 3.41zm66 0v77.42H772v-80.83l-12.33 3.41zm66.5 0v77.42h12.33v-80.83l-12.33 3.41z"/><path class="cls-7" d="M890.66 804.22v77.42H903v-80.83l-12.34 3.41z"/><path class="cls-8" d="M962.33 695.47v20.67h-32.66v-24l32.66 3.33zm0 171.98v26.69h-32.66v-31l32.66 4.31zm-10-150.64v58.66H929l1.33-58.66h22z"/><path class="cls-8" d="M952.33 789.31v78.16H929l1.33-78.16h22z"/><path class="cls-8" d="M959.5 777.64v12.5l-28.5-2 1.5-13.5 27 3zm-15.83 13.16h372.67v5.33H943.67z"/><path class="cls-5" d="M949 714.14h367.33v14.67H949zm37.33 17.33H1007v28.67h-20.67zm61 0H1068v28.67h-20.67z"/><path class="cls-7" d="M1229.33 731.47H1250v28.67h-20.67z"/><path class="cls-5" d="M569.48 731.47h20.67v28.67h-20.67zm-91.49 0h20.67v28.67h-20.67zm-61.5 0h20.67v28.67h-20.67zm-30 0h20.67v28.67h-20.67z"/><path class="cls-7" d="M962 806.14h29v42h-29z"/><path class="cls-5" d="M490.32 806.14h29v42h-29zm-94.5 0h29v42h-29z"/><path class="cls-7" d="M1150 806.14h29v42h-29z"/><path class="cls-5" d="M865 649.14l43 33v9h5v24.5h-5v35h4v26.5h-3.5v11.5h4v92.5l-19.5-3 .5-63 3.5-2.5-1-44-2-12.5-7.5-56.5-.5-15.5-53.5-38 32.5 3z"/><path class="cls-8" d="M631 695.64h12.5v20H631zm-4.5 20h20v62h-20z"/><path class="cls-7" d="M634 775.64h9v13h-9z"/><path class="cls-8" d="M627.5 787.64H644v78h-16.5z"/><path class="cls-8" d="M635.5 864.14h7.5v29.5h-7.5zM246.83 696.67h390.42v8.97H246.83zm9 91.5h389.98v18H255.83zM950 601.14l51 45h-44v49l-32 1 3-59 33-2-47-31 36-3z"/><path class="cls-8" d="M657 604.14l-66.68 44.53h38.99v48l15.69.47v-62l-24-2 36-29z"/><path class="cls-2" d="M713 546.08l72.28-29.76 72.28 29.76H713zm161.39 39.78l88.89 49.47H610.66L692.93 586"/><path class="cls-2" d="M825.21 546.14l83.32 39.75H662.02l84.6-39.75m-88.78 56.31H336.42l-115.88 94.02h420.97m3.94-61.4v257.28m282.06-257.28v257.28M731.79 654.93l-52.7 29.86h212.6l-52.71-29.86H731.79zm-46.98 30.49h201.16v13.28H684.81zm-15.6 14.7h233.24v9.4H669.21zm0 60.25h233.24v9.4H669.21zm0 33.53h233.24v9.4H669.21zm5.1-21.84h223.04v21.73H674.31zm8.02-61.55h10.69v49.57h-10.69zm-3.34 94.02h17.37v12.39h-17.37zm65.6 0h17.37v12.39h-17.37zm64.69 0h17.37v12.39h-17.37zm69.24 0h17.37v12.39h-17.37zm3.04-94.02h10.69v49.57h-10.69zm-134.12 0h10.69v49.57h-10.69zm65.12 0h10.69v49.57h-10.69zM682.33 816.92h10.69v64.72h-10.69zm199.23 0h10.69v64.72h-10.69zm-134.12 0h10.69v64.72h-10.69zm65.12 0h10.69v64.72h-10.69zM245.32 696.47h400.13v19.68H245.32zm401.24-79.93h41.71m53.08 0h68.24m-108.69 0h13.91m121.32 0h13.9m21.8 0h6.95M244.76 776.52h398.98v12H244.76zm13.49-58.5v57m0 16.5v76.5"/><path class="cls-9" d="M293.65 730.52h19.56v30h-19.56zm12.5 74h28.37v43.5h-28.37zm90 0h28.37v43.5h-28.37zm94.49 0h28.37v43.5h-28.37zm93 0h28.37v43.5h-28.37zm-256.99-74h19.56v30h-19.56zm59.07 0h19.56v30h-19.56zm33 0h19.56v30h-19.56zm58 0h19.56v30h-19.56zm33 0h19.56v30h-19.56zm59 0h19.56v30h-19.56zm33 0h19.56v30h-19.56zm47.78 163.95h-395v-28h395"/><path class="cls-2" d="M908.3 602.45h330.89l115.89 94.02H934.1m-3.94 0h400.13v19.68H930.16zm1.72 80.05h398.98v12H931.88zm385.48-58.5v57m0 16.5v76.5"/><path class="cls-9" d="M1262.39 730.52h19.56v30h-19.56zm-21.3 74h28.37v43.5h-28.37zm-89.99 0h28.37v43.5h-28.37zm-94.5 0h28.37v43.5h-28.37zm-92.99 0h28.37v43.5h-28.37zm265.78-74h19.56v30h-19.56zm-59.06 0h19.56v30h-19.56zm-33 0h19.56v30h-19.56zm-58 0h19.56v30h-19.56zm-33 0h19.56v30h-19.56zm-59 0h19.56v30h-19.56zm-33 0h19.56v30h-19.56zm-28.22 163.95h395v-28h-395"/><path class="cls-2" d="M646.46 882.53h279.65v11.94H646.46zm51.85-313.35h72m16 0h10.02m33.31 0h10.03"/></g><g id="tuguputih"><path class="cls-3" d="M3599 6264.92v32l-26 1s-7 13-5 27 2 26 5 31 15 5 15 5l10 10-43 7-2 13 3 11-5 1-1 21-12 2-1 27h-138l-2 14-41-1v16l-19-1 11 15s-22 26-18 41 20 35 20 35h471l-42-98-47-30 2-16-11-6-4-20-3-21-43-5 11-15s17-3 18-7 13-50-6-57-97-32-97-32z" transform="translate(-2382 -5675.78)"/><path class="cls-5" d="M3923 6566.85s14-17.06 14-25.58-607 0-607 0 11 29 20 30.7 573-5.12 573-5.12z" transform="translate(-2382 -5675.78)"/><path class="cls-5" d="M977 791.14h559v14H977z"/><path class="cls-5" d="M3760.76 6524.94a3 3 0 0 0-3-3h-424.48a3 3 0 0 0-3 3 3 3 0 0 0 3 3h424.48a3 3 0 0 0 3-3z" transform="translate(-2382 -5675.78)"/><path class="cls-7" d="M3801.67 6524.58a3.67 3.67 0 0 1-3.67 3.67h-16a3.67 3.67 0 0 1-3.67-3.67 3.67 3.67 0 0 1 3.67-3.67h16a3.67 3.67 0 0 1 3.67 3.67z" transform="translate(-2382 -5675.78)"/></g><g id="awan_putih" data-name="awan putih"><path class="cls-3" d="M2611.67 6438.25s44 0 50.67 32 1.67 37.67 1.67 37.67 21 6 25 12 5.67 8.67 5.67 8.67 26.33-35.33 57-24.67 42.33 48.33 47.33 76l-401-2" transform="translate(-2382 -5675.78)"/><path class="cls-6" d="M2559.51 6477s2.82-1.08 10.31 13.45c-1.49-15.19 12.18-55 64.68-50.53-36-4.5-42.5-5.5-54.18 2.53-23.74 16.32-20.81 34.55-20.81 34.55m144.49 61.92s29-39 62.5-27.5c-32-16.5-60-3-68 5.5-2 7.5 2 16 2 16l3.5 6m-46.5-31.83s-28 1.33-36 28.67c8.67-14 28-23.33 46.67-19.33 9.5 1.17 11.33-9.33-4.67-10a51.32 51.32 0 0 0-6 .66zm-123-30.67s-25 17-4 40c11 12 24 0 43 8s11 18 14 27 46 4 52 11 12 9 12 9h-250s-6.5-24.5 14.5-39.5l13.5-8h16.5s26-40.5 68.5-26c11-21.5 12.5-18.55 20-21.5z" transform="translate(-2382 -5675.78)"/><path class="cls-10" d="M2442.5 6527.42s-22.5-1.5-20.5 43c35 0 128.5-3.5 128.5-3.5s5.5-21-25-23.5-33.5-9-29.5-24.5-20.5-36-53.5 8.5z" transform="translate(-2382 -5675.78)"/></g><g id="tugu_line_warna" data-name="tugu line+warna"><path class="cls-1" d="M2796.27 6573.92a4 4 0 0 1-3.94-4.06v-1.47c0-20.32-6.51-35.25-16.52-45.26-10-10-23.76-15.16-38.82-15.17a54.31 54.31 0 0 0-39.29 16.75 4 4 0 0 1-3 1.23 4 4 0 0 1-2.92-1.37 39.38 39.38 0 0 0-29-13.58 4 4 0 0 1-3.24-1.77 4 4 0 0 1-.41-3.68 49.85 49.85 0 0 0 3.38-18.08 49.82 49.82 0 0 0-14.65-35.36 49.83 49.83 0 0 0-35.36-14.65 50 50 0 0 0-49.06 40.31 4 4 0 0 1-2.53 3 4 4 0 0 1-3.86-.6A24.36 24.36 0 0 0 2542 6475a24.49 24.49 0 0 0-21.48 12.71 4 4 0 0 1-2.53 2 4 4 0 0 1-3.15-.53 40.76 40.76 0 0 0-22.34-6.63 40.85 40.85 0 0 0-29 12 40.85 40.85 0 0 0-12 29 4 4 0 0 1-4 4 4 4 0 0 1-4-4 49 49 0 0 1 49-49 48.76 48.76 0 0 1 23.23 5.86A32.47 32.47 0 0 1 2542 6467a32.36 32.36 0 0 1 15 3.67 58 58 0 0 1 55.51-41.17 58 58 0 0 1 58 58 57.88 57.88 0 0 1-2.23 15.93 47.37 47.37 0 0 1 26.67 12.87A62.27 62.27 0 0 1 2737 6500c16.87 0 32.8 5.86 44.47 17.5 11.68 11.63 18.89 28.9 18.87 50.92v1.59a4 4 0 0 1-4 3.94h-.06z" transform="translate(-2382 -5675.78)"/><path class="cls-1" d="M2700 6571a4 4 0 0 1-2.14-5.24 39 39 0 0 0 2-6.33 4 4 0 0 1 4.8-3 4 4 0 0 1 3 4.8 47.15 47.15 0 0 1-2.47 7.63 4 4 0 0 1-3.69 2.45 4 4 0 0 1-1.55-.31zm.72-24.35a39.51 39.51 0 0 0-39.32-35.65 39.37 39.37 0 0 0-15.38 3.1 4 4 0 0 1-5.24-2.13 4 4 0 0 1 2.13-5.24 47.35 47.35 0 0 1 18.49-3.73 47.51 47.51 0 0 1 47.28 42.91 4 4 0 0 1-3.6 4.36h-.39a4 4 0 0 1-4-3.62z" transform="translate(-2382 -5675.78)"/><path class="cls-2" d="M2571.24 6499.47a28.5 28.5 0 1 0-57 0" transform="translate(-2382 -5675.78)"/><path class="cls-5" d="M1342 747.47h-173.65v-22.85H1342v22.85zm-75-135.33v-380l12-2v386l-12-4zm-40 0v-380l12-2v386l-12-4z"/><path class="cls-5" d="M3619 5898.92c0-1.5 5.5-56.5 11-59.5s17 5.5 17 5.5l2.5 53s-9-12.5-15.5-10-15 11-15 11z" transform="translate(-2382 -5675.78)"/><rect class="cls-5" x="1227" y="632.14" width="54" height="36" rx="6" ry="6"/><rect class="cls-5" x="1295" y="632.14" width="29" height="36" rx="6" ry="6"/><rect class="cls-5" x="1185" y="632.14" width="29" height="36" rx="6" ry="6"/><path class="cls-2" d="M3619.63 5903.29V5866c0-5.7 5.42-26.41 12.11-26.41h6.46c6.69 0 12.11 20.71 12.11 26.41v42.87m-5.7-79.87a9.79 9.79 0 0 1-9.79 9.79 9.79 9.79 0 0 1-9.82-9.79 9.79 9.79 0 0 1 9.79-9.79 9.79 9.79 0 0 1 9.79 9.79zm-22.04 464.5v-373.24c0-5.41-4.38-15.67-9.79-15.67h-5.22c-5.41 0-9.79 10.26-9.79 15.67v373.24z" transform="translate(-2382 -5675.78)"/><path class="cls-2" d="M3647.38 6293.5v-386.95c0-5.41-4.38-17.63-9.79-17.63h-5.22c-5.41 0-9.79 12.22-9.79 17.63v386.95zm26.11 0v-373.24c0-5.41-4.38-15.67-9.79-15.67h-5.22c-5.41 0-9.79 10.26-9.79 15.67v373.24z" transform="translate(-2382 -5675.78)"/><rect class="cls-2" x="1186.39" y="619.86" width="135.79" height="62.67" rx="9.79" ry="9.79"/><path class="cls-2" d="M1204.34 682.21l16.65 19.58h68.55l13.7-16.65m33.3 41.79h-163.21v-23.51h163.21v23.51zm5.22 23.5h-173.65v-23.5h173.65v23.5zm11.75 23.5h-197.15v-23.5h197.15v23.5z"/><path class="cls-2" d="M3398 6463.94v-11.62h479.18v12.12m-519.34 14.15V6466h559.5v13.22" transform="translate(-2382 -5675.78)"/><path class="cls-2" d="M1253.81 143.46V78.69M955 805.14h594l-10 16H967l-12-16z"/><path class="cls-2" d="M3349 6496.92s-18 11-18 37a40.32 40.32 0 0 0 21 36h568s17-8 17-40-16-33-16-33" transform="translate(-2382 -5675.78)"/><path class="cls-1" d="M2403 6571.92h-17a4 4 0 0 1-2.83-1.17 4 4 0 0 1-1.17-2.83v-1.08a51 51 0 0 1 51-49.92 50.86 50.86 0 0 1 18.74 3.56 4 4 0 0 1 2.25 5.19 4 4 0 0 1-5.19 2.25 42.85 42.85 0 0 0-15.8-3 43 43 0 0 0-42.82 39H2568a4 4 0 0 1 4 4 4 4 0 0 1-4 4h-165zm183-1a4 4 0 0 1-4-4 4 4 0 0 1 4-4h19a4 4 0 0 1 4 4 4 4 0 0 1-4 4h-19z" transform="translate(-2382 -5675.78)"/></g></svg>