<svg id="Layer_1" data-name="Layer 1" xmlns="http://www.w3.org/2000/svg" viewBox="0 0 411.06 379.78"><defs><style>.cls-1,.cls-2{fill:none}.cls-1{stroke:#bdf271;stroke-width:10px}.cls-2{stroke:#01a2a6;stroke-width:13px}</style></defs><title>island</title><path class="cls-1" d="M280.05 229.29l25.49 1.5m-22.49 41.99l31.49 10.5"/><path class="cls-1" d="M8721 5823.16s15 30 40.5 25.5 28.5-34.5 63-25.5 49.5 24 84 19.5 49.5-22.5 49.5-22.5M8923 5594s-12-63 32-84 65 11 65 11m-98 81s-39.55-66-80-49c-31 13-28 44-28 44" transform="translate(-8668.96 -5497.88)"/><path class="cls-1" d="M8930 5613s-56-37-94 3c-26.32 27.7-6 60-6 60m102-76s35.17-88.78 110.5-50.37c34.5 17.59 32.5 43.59 32.5 43.59" transform="translate(-8668.96 -5497.88)"/><path class="cls-2" d="M9004 5871.16c-27.8-54.82-90-93-162.21-93s-134.42 38.18-162.21 93z" transform="translate(-8668.96 -5497.88)"/><path class="cls-2" d="M8952 5814.39s6-180-33-227.32c57 44.65 69 257.09 69 257.09" transform="translate(-8668.96 -5497.88)"/><path class="cls-1" d="M280.04 70.99l20 28.87m-2-44.21l27 36.99m0-46.01l17 38.79m11-40.59l6 35.18m22-19.85l-2 22.56m-144 22.4l12 30m-46-31l24 32m-51-20l27 29m-44 2l20 9m34-94v18m-38-25l12 28m75-41l13 14m18-43l8 27"/></svg>