<svg id="Слой_1" data-name="Слой 1" xmlns="http://www.w3.org/2000/svg" viewBox="0 0 144.11 23.75"><defs><style>.cls-1{isolation:isolate}.cls-2{fill:#fff}</style></defs><title>logo</title><g id="YokNgalam" class="cls-1"><g class="cls-1"><path class="cls-2" d="M20.85 1.83l-6.6 11.58v6h-2.42v-5.89L5.13 1.83H7.6l5.44 9 5.34-9zM31 6.92a6.16 6.16 0 0 1 2.43 2.38 6.92 6.92 0 0 1 .87 3.49 7 7 0 0 1-.87 3.5A6.14 6.14 0 0 1 31 18.68a7.2 7.2 0 0 1-3.54.86 7.25 7.25 0 0 1-3.56-.86 6.15 6.15 0 0 1-2.42-2.38 7 7 0 0 1-.87-3.51 6.91 6.91 0 0 1 .87-3.49 6.16 6.16 0 0 1 2.42-2.38 7.24 7.24 0 0 1 3.56-.86 7.19 7.19 0 0 1 3.54.86zm-5.86 1.79a4.18 4.18 0 0 0-1.59 1.67 5.11 5.11 0 0 0-.55 2.43 5.24 5.24 0 0 0 .57 2.47A4.07 4.07 0 0 0 25.14 17a4.55 4.55 0 0 0 2.33.59 4.5 4.5 0 0 0 2.3-.59 4.08 4.08 0 0 0 1.59-1.68 5.25 5.25 0 0 0 .57-2.47 5.12 5.12 0 0 0-.57-2.43 4.19 4.19 0 0 0-1.59-1.67 4.43 4.43 0 0 0-2.3-.6 4.48 4.48 0 0 0-2.33.56zm21.75 10.75L42.63 13 40 15.68v3.78h-2.31V.78H40v11.91l6.45-6.55h2.75l-5 5.16 5.44 8.16z" transform="translate(-5.13 -.78)"/></g><g class="cls-1"><path class="cls-2" d="M63.71 1.81H68v17.65h-4L56 8.91v10.55h-4.36V1.81h4.06l8 10.63zm20.77 4.03v12.41a5.91 5.91 0 0 1-.93 3.31 6 6 0 0 1-2.61 2.19 9.19 9.19 0 0 1-3.87.77 11.38 11.38 0 0 1-3.3-.48A10.43 10.43 0 0 1 71 22.76l1.56-3.1a8 8 0 0 0 2 1 7 7 0 0 0 2.19.35 3.73 3.73 0 0 0 2.39-.71 2.32 2.32 0 0 0 .86-1.92v-1.46a4.58 4.58 0 0 1-3.88 1.79 5.61 5.61 0 0 1-3-.82 5.55 5.55 0 0 1-2.06-2.32 7.63 7.63 0 0 1-.74-3.44A7.56 7.56 0 0 1 71 8.76a5.38 5.38 0 0 1 2-2.27 5.55 5.55 0 0 1 3-.81 5.42 5.42 0 0 1 2.28.47A4.46 4.46 0 0 1 80 7.5V5.84zm-5.21 8.71a3.39 3.39 0 0 0 .73-2.29 3.43 3.43 0 0 0-.76-2.32 2.69 2.69 0 0 0-4 0 3.41 3.41 0 0 0-.77 2.3 3.36 3.36 0 0 0 .77 2.29 2.53 2.53 0 0 0 2 .88 2.49 2.49 0 0 0 2.03-.86zM98.28 7a4.54 4.54 0 0 1 1.59 3.64v8.86h-4.41v-1.57a4.89 4.89 0 0 1-4.1 1.74 4.78 4.78 0 0 1-3.41-1.17 4 4 0 0 1-1.25-3.08 3.66 3.66 0 0 1 1.35-3 6.14 6.14 0 0 1 3.87-1.11h3.55v-.15a1.82 1.82 0 0 0-.67-1.51 3 3 0 0 0-1.93-.53 7.77 7.77 0 0 0-1.93.28 11.48 11.48 0 0 0-2.15.81l-1.23-3A17.72 17.72 0 0 1 90.74 6a13.53 13.53 0 0 1 3.16-.37A6.67 6.67 0 0 1 98.28 7zm-3.78 9.13a2.13 2.13 0 0 0 1-1.27v-1.19h-2.71q-1.89 0-1.89 1.41a1.39 1.39 0 0 0 .49 1.12 2 2 0 0 0 1.35.42 3.16 3.16 0 0 0 1.76-.49zM103 .78h4.48v18.68H103zM121.57 7a4.54 4.54 0 0 1 1.59 3.64v8.86h-4.41v-1.57a4.89 4.89 0 0 1-4.1 1.74 4.78 4.78 0 0 1-3.41-1.17 4 4 0 0 1-1.24-3.09 3.66 3.66 0 0 1 1.35-3 6.14 6.14 0 0 1 3.87-1.11h3.55v-.15a1.82 1.82 0 0 0-.67-1.51 3 3 0 0 0-1.93-.53 7.77 7.77 0 0 0-1.93.28 11.48 11.48 0 0 0-2.15.81l-1.23-3A17.72 17.72 0 0 1 114 6a13.53 13.53 0 0 1 3.16-.37A6.67 6.67 0 0 1 121.57 7zm-3.78 9.17a2.13 2.13 0 0 0 1-1.27v-1.23h-2.67q-1.89 0-1.89 1.41a1.39 1.39 0 0 0 .49 1.12 2 2 0 0 0 1.35.42 3.16 3.16 0 0 0 1.73-.49zm30.12-9.1a5.31 5.31 0 0 1 1.33 3.8v8.59h-4.48v-7.3a2.62 2.62 0 0 0-.6-1.83 2.1 2.1 0 0 0-1.64-.67 2.37 2.37 0 0 0-1.88.87 3.36 3.36 0 0 0-.69 2.2v6.72h-4.48v-7.3a2.62 2.62 0 0 0-.6-1.83 2.1 2.1 0 0 0-1.64-.67 2.41 2.41 0 0 0-1.89.87 3.32 3.32 0 0 0-.71 2.2v6.72h-4.46V5.84h4.46v2.24a4.81 4.81 0 0 1 1.83-1.8 5.32 5.32 0 0 1 2.61-.62 4.94 4.94 0 0 1 2.85.81 4.39 4.39 0 0 1 1.69 2.24 4.89 4.89 0 0 1 1.88-2.28 5.3 5.3 0 0 1 2.88-.77 4.66 4.66 0 0 1 3.54 1.41z" transform="translate(-5.13 -.78)"/></g></g></svg>