<svg id="Layer_1" data-name="Layer 1" xmlns="http://www.w3.org/2000/svg" viewBox="0 0 562.22 276.33"><defs><style>.cls-1,.cls-2{fill:none}.cls-1{stroke:#bdf271;stroke-width:10px}.cls-2{stroke:#01a2a6;stroke-width:13px}</style></defs><title>mountains</title><path class="cls-1" d="M7885 5845s92-68 128-62 46 36 70 34 24-94 120-28" transform="translate(-7850.37 -5601.17)"/><path class="cls-1" d="M370.63 166.5l69 100.33"/><path class="cls-2" d="M8065.08 5728.66s24-21 48-21 164.79 163 164.79 163h-414s138-174 165-177 27.23 44 51.23 47" transform="translate(-7850.37 -5601.17)"/><path class="cls-2" d="M8203 5789s36-48 76-50 122 132 122 132h-128m-1.39-213.83a37.49 37.49 0 0 0-63.89-36.51 30 30 0 0 0-36.69 36.51z" transform="translate(-7850.37 -5601.17)"/></svg>