<svg id="2ede3d93-85e8-4db0-8792-b936e3d292db" data-name="Слой 1" xmlns="http://www.w3.org/2000/svg" viewBox="0 0 2500 2513.02"><defs><style>.\36 856c1e5-37aa-44e2-a01b-b92dead1ba6f{fill:none}.\31 607ffe2-fdc1-4ffe-984d-06e2e087433c{clip-path:url(#89c8b2d8-25e1-439e-b150-6ec6e688a85c)}.\37 f35acef-ee18-4cf9-927c-21a7bfacc419{fill:#0f9d58}.bdabe696-da33-4479-b0d9-eaaba5af54d4{fill:url(#92538ab9-a80c-43ae-8d29-7c4c90d07deb)}.d01b8447-ee8e-46cd-9171-7c9a18c7762a,.f2b708c8-6ba3-478c-88ee-3c90f282b219{fill:#fff}.f2b708c8-6ba3-478c-88ee-3c90f282b219{fill-opacity:.24}.\32 2287545-ffc5-4b49-aaa5-dcf8eec0e9e6,.c3f1f56e-5bac-4064-b984-ee9a34b8677e,.d5e336ce-c893-445a-a62a-efa1916907c6{fill:#263238}.d5e336ce-c893-445a-a62a-efa1916907c6{opacity:.2;isolation:isolate}.\30 6307a36-e8e7-4808-a71b-2cceaba00916{fill:#4285f5}.c3f1f56e-5bac-4064-b984-ee9a34b8677e,.d01b8447-ee8e-46cd-9171-7c9a18c7762a{fill-opacity:.2}.\32 2287545-ffc5-4b49-aaa5-dcf8eec0e9e6{fill-opacity:.1}.ffc89728-6208-4b7c-b7a1-ed143baea62c{opacity:.1}.\33 65ed60a-3445-4ab9-acfc-53e42b5f4e64{fill:url(#b1e5065a-5bca-4f83-9d77-b4f21979d58e)}</style><clipPath id="89c8b2d8-25e1-439e-b150-6ec6e688a85c"><path class="6856c1e5-37aa-44e2-a01b-b92dead1ba6f" d="M1666.67 0H833.33L0 2500h609.37c88.54 0 166.67-36.46 224-96.35 31.25-31.25 54.69-70.31 70.31-112L1250 1250l346.35 1041.67c15.62 41.67 39.06 80.73 70.31 112 57.29 57.29 135.42 96.35 224 96.35H2500z"/></clipPath><linearGradient id="92538ab9-a80c-43ae-8d29-7c4c90d07deb" x1="-1216.58" y1="2087.04" x2="-1160.34" y2="2068.63" gradientTransform="matrix(26.04 0 0 -26.04 33015.49 55354.58)" gradientUnits="userSpaceOnUse"><stop offset="0" stop-color="#263238" stop-opacity=".2"/><stop offset="1" stop-color="#263238" stop-opacity="0"/></linearGradient><radialGradient id="b1e5065a-5bca-4f83-9d77-b4f21979d58e" cx="-1235.97" cy="2125.59" r="115.19" gradientTransform="matrix(26.04 0 0 -26.04 33015.49 55354.58)" gradientUnits="userSpaceOnUse"><stop offset="0" stop-color="#fff"/><stop offset="1" stop-color="#fff" stop-opacity="0"/></radialGradient></defs><title>adwords</title><g class="1607ffe2-fdc1-4ffe-984d-06e2e087433c"><path class="7f35acef-ee18-4cf9-927c-21a7bfacc419" d="M1666.67 0L2500 2500h-609.38c-88.54 0-166.67-36.46-224-96.35-31.25-31.25-54.69-70.31-70.31-112L833.33 0z"/></g><g class="1607ffe2-fdc1-4ffe-984d-06e2e087433c"><path class="bdabe696-da33-4479-b0d9-eaaba5af54d4" d="M1666.67 0L1250 1250l1250 1250z"/></g><g class="1607ffe2-fdc1-4ffe-984d-06e2e087433c"><path class="d5e336ce-c893-445a-a62a-efa1916907c6" d="M0 2500l5.21-13z"/><path class="6856c1e5-37aa-44e2-a01b-b92dead1ba6f" d="M1044.27 1447.92l-2.6 5.21"/></g><g class="1607ffe2-fdc1-4ffe-984d-06e2e087433c"><path class="06307a36-e8e7-4808-a71b-2cceaba00916" d="M833.33 0L0 2500h609.37c88.54 0 166.67-36.46 224-96.35 31.25-31.25 54.69-70.31 70.31-112L1666.67 0z"/></g><g class="1607ffe2-fdc1-4ffe-984d-06e2e087433c"><path class="d01b8447-ee8e-46cd-9171-7c9a18c7762a" d="M1658.85 13l7.81-13H833.33L0 2500l7.81-13L833.33 13z"/></g><g class="1607ffe2-fdc1-4ffe-984d-06e2e087433c"><path class="c3f1f56e-5bac-4064-b984-ee9a34b8677e" d="M903.65 2278.65c-15.62 41.67-39.06 80.73-70.31 112C776 2447.92 697.92 2487 609.37 2487H7.81L0 2500h609.37c88.54 0 166.67-36.46 224-96.35 31.25-31.25 54.69-70.31 70.31-112L1666.67 0l-7.81 13z"/></g><g class="1607ffe2-fdc1-4ffe-984d-06e2e087433c"><path class="22287545-ffc5-4b49-aaa5-dcf8eec0e9e6" d="M903.65 2294.27c-15.62 41.67-39.06 80.73-70.31 112-57.29 57.29-135.42 96.35-224 96.35L5.21 2500 0 2513h609.37c88.54 0 166.67-36.46 224-96.35 31.25-31.25 54.69-70.31 70.31-112L1669.27 5.21l-2.6-5.21z"/></g><g class="1607ffe2-fdc1-4ffe-984d-06e2e087433c"><path class="c3f1f56e-5bac-4064-b984-ee9a34b8677e" d="M2494.79 2487L1666.67 0v13l825.52 2474H1888c-88.54 0-166.67-36.46-224-96.35-31.25-31.25-54.69-70.31-70.31-112l5.21 13c15.62 41.67 39.06 80.73 70.31 112 57.29 57.29 135.42 96.35 224 96.35H2500z"/></g><g class="ffc89728-6208-4b7c-b7a1-ed143baea62c"><path class="365ed60a-3445-4ab9-acfc-53e42b5f4e64" d="M1666.67 0H833.33L0 2500h609.37c88.54 0 166.67-36.46 224-96.35 31.25-31.25 54.69-70.31 70.31-112L1250 1250l346.35 1041.67c15.62 41.67 39.06 80.73 70.31 112 57.29 57.29 135.42 96.35 224 96.35H2500z"/></g><path class="6856c1e5-37aa-44e2-a01b-b92dead1ba6f" d="M0 0h2500v2500H0z"/></svg>