<svg xmlns="http://www.w3.org/2000/svg" viewBox="0 0 682.65 741.49"><defs><style>.cls-1{fill:#fff}</style></defs><title>CHOCOLATE</title><path class="cls-1" d="M135.5 54.6q-23.62 0-36.85 19.34t-13.23 53.35q0 70.68 53.76 70.68a110.11 110.11 0 0 0 31.49-4.52 314.9 314.9 0 0 0 30.65-10.89v55.94q-30.65 13.57-69.32 13.57-55.44 0-85-32.16t-29.56-93q0-38 14.32-66.83t41.2-44.3Q99.82.34 136.17.34A174.2 174.2 0 0 1 212 17.59l-20.23 52.13A228.28 228.28 0 0 0 164.64 59a94.86 94.86 0 0 0-29.14-4.4zm297.69 194.12h-66.5V148.9h-76.87v99.82h-66.49V3.86h66.49v90.78h76.88V3.86h66.49zm249.46-122.77q0 61.8-30.32 94t-88.77 32.16q-57.62 0-88.35-32.32t-30.73-94.17q0-61.13 30.57-93.37T563.9 0q58.45 0 88.6 32t30.15 93.95zm-168.49 0q0 71 49.41 71 25.12 0 37.27-17.25T613 125.95q0-36.68-12.31-54.18t-36.79-17.5q-49.74 0-49.74 71.68z"/><path class="cls-1" d="M135.5 300.99q-23.62 0-36.85 19.34t-13.23 53.39q0 70.68 53.76 70.68a110.12 110.12 0 0 0 31.49-4.52 314.77 314.77 0 0 0 30.65-10.89v55.94q-30.65 13.53-69.32 13.53-55.44 0-85-32.16t-29.56-93q0-38 14.32-66.83t41.2-44.3q26.86-15.45 63.21-15.45A174.2 174.2 0 0 1 212 263.98l-20.27 52.09a228.36 228.36 0 0 0-27.13-10.72 94.85 94.85 0 0 0-29.1-4.36z"/><path class="cls-1" d="M443.87 372.34q0 61.8-30.32 94t-88.77 32.16q-57.62 0-88.35-32.32t-30.73-94.13q0-61.13 30.57-93.37t88.85-32.24q58.45 0 88.6 32t30.15 93.9zm-168.49 0q0 71 49.41 71 25.12 0 37.27-17.25t12.14-53.76q0-36.68-12.31-54.18t-36.76-17.5q-49.75.01-49.75 71.69zm209.28 122.77V250.24h66.16v191.48h94.29v53.43zM176.7 741.5l-12.06-45.89H85.08L72.69 741.5H0l79.89-245.87h88.27l80.9 245.87zm-25.79-100.16l-10.55-40.2q-3.69-13.4-9-34.67t-7-30.48q-1.51 8.54-5.95 28.14t-19.68 77.21z"/><path class="cls-1" d="M357.82 741.5h-66.16V550.72h-59.79v-54.1h185.57v54.1h-59.62zm271.18 0H483.66V496.63H629v53.09h-79.18v38.52h73.36v53.09h-73.36v46.23H629z"/></svg>