<svg xmlns="http://www.w3.org/2000/svg" xmlns:xlink="http://www.w3.org/1999/xlink"><defs><symbol id="car" viewBox="0 0 25 13"><title>car</title><path data-name="Forma 1" class="cls-1" d="M.61 5.07l3.87-.63L8.31.24A.75.75 0 0 1 8.85 0h12.63a.76.76 0 0 1 .62.33l2.79 4.39a.7.7 0 0 1 .11.37v4.7a.71.71 0 0 1-.72.7h-1.74a3.33 3.33 0 0 1-6.45 0H8.91a3.33 3.33 0 0 1-6.45 0H.73A.71.71 0 0 1 0 9.8v-4a.72.72 0 0 1 .61-.73zm11.52-3.66H9.18l-2.71 3h5.66v-3zm5 0h-3.55v3h5.26zm2.23 10.18a1.82 1.82 0 0 0 1.81-1.79 1.86 1.86 0 1 0-1.9 1.81zm-13.64 0a1.8 1.8 0 1 0-1.85-1.8 1.83 1.83 0 0 0 1.85 1.8zm-4.27-2.5h1a3.33 3.33 0 0 1 6.45 0h7.18a3.33 3.33 0 0 1 6.45 0h1v-3.8l-2.45-3.88h-2.32l2 3.33a.7.7 0 0 1 0 .7.73.73 0 0 1-.63.35H4.91l-3.46.57v2.73z"/></symbol><symbol id="card" viewBox="0 0 39 28"><title>card</title><path data-name="Forma 1" class="cls-1" d="M35.56.01H3.44A3.56 3.56 0 0 0 0 3.5v21a3.56 3.56 0 0 0 3.44 3.51h32.12a3.56 3.56 0 0 0 3.44-3.5v-21a3.56 3.56 0 0 0-3.44-3.5zM3.44 2.34h32.12a1.09 1.09 0 0 1 1.15 1.17v1.86H2.29V3.5a1.09 1.09 0 0 1 1-1.17h.13zM36.71 7.7v1.87H2.29V7.71h34.42zm-1.15 18H3.44a1.09 1.09 0 0 1-1.15-1.19v-12.6h34.42v12.6a1.09 1.09 0 0 1-1 1.16h-.13zM6 17.28h6a1.17 1.17 0 0 0 0-2.33H6a1.2 1.2 0 0 0-.8 1.48 1.32 1.32 0 0 0 .8.85zm14 2.57H6a1.17 1.17 0 0 0 0 2.33h14a1.24 1.24 0 0 0 1.11-1.17 1.09 1.09 0 0 0-1-1.17H20z"/></symbol><symbol id="clock" viewBox="0 0 17.76 17.77"><title>clock</title><path data-name="Forma 1" class="cls-1" d="M17.04 5.38a8.88 8.88 0 1 0 .72 3.51 8.88 8.88 0 0 0-.72-3.51zm-1.43 7.51a7.91 7.91 0 0 1-2.85 2.85 7.75 7.75 0 0 1-4 1.06 7.62 7.62 0 0 1-3.07-.63 7.73 7.73 0 0 1-4.2-4.22 7.91 7.91 0 0 1 14.12-7.06 8 8 0 0 1 0 7.94zM9.32 8.8V3.7a.57.57 0 0 0-.56-.55.56.56 0 0 0-.54.55v5.19a.45.45 0 0 1 0 .08.51.51 0 0 0 .15.44l2.94 2.94a.56.56 0 0 0 .76 0 .53.53 0 0 0 0-.75z"/></symbol><symbol id="insurance" viewBox="0 0 37 31"><title>insurance</title><path data-name="Forma 1" class="cls-1" d="M7.58 21.74a.86.86 0 0 1-.85.87H2.38a.87.87 0 0 1 0-1.74h4.35a.86.86 0 0 1 .85.87zm.23-4.11a.81.81 0 0 1-.3 0 9.06 9.06 0 0 1-5.35-3.15A9.4 9.4 0 0 1 0 8.5V3.14C0 2.42.45 1.42 2.58.71a18.57 18.57 0 0 1 10.15 0c2.14.71 2.59 1.72 2.59 2.43V8.5a9.4 9.4 0 0 1-2.16 6 9.12 9.12 0 0 1-5.35 3.15zm5.8-9.14V3.16c-.17-.41-2.15-1.41-5.95-1.41s-5.78 1-5.95 1.41V8.5a6.09 6.09 0 1 0 11.9 0zM6.73 24H4.78a.87.87 0 0 0 0 1.74h1.95a.87.87 0 0 0 0-1.74zm18.62 2.89a.87.87 0 0 1-.86.87h-4.93a4 4 0 0 1-7.91-.14 2.59 2.59 0 0 1-1.55-1.31 2.25 2.25 0 0 1-.23-1v-5.8a.85.85 0 1 1 1.71 0v5.81a.52.52 0 0 0 .05.21.63.63 0 0 0 .13.18 4 4 0 0 1 7.8.31h4.93a.87.87 0 0 1 .86.87zm-7.41 0a2.32 2.32 0 1 0-4.64 0 2.32 2.32 0 1 0 4.64 0zM37 23.47v1.86a2.48 2.48 0 0 1-1.77 2.29 4.11 4.11 0 1 1-.11-1.91.53.53 0 0 0 .17-.38v-4.76H22.1c-.3 0-1 0-3.22-2.22a14.86 14.86 0 0 1-2.25-2.72.88.88 0 0 1 .47-1.14.85.85 0 0 1 1.11.45A15.76 15.76 0 0 0 20 17a8.59 8.59 0 0 0 2.13 1.77h12.16l-1.08-1-.78-.71c-.21-.19-.41-.39-.61-.59s-.59-.58-.91-.84l-.78-.63c-3.17-2.72-4-3.46-6.7-3.46h-5.9a.87.87 0 0 1 0-1.74h5.9c3.3 0 4.61 1.13 7.8 3.86l.78.67c.36.3.68.62 1 .92s.38.38.57.55l.77.7c2.05 1.85 2.6 2.35 2.65 4.81v2.14zm-3.42 3.41a2.37 2.37 0 1 0-2.37 2.38 2.37 2.37 0 0 0 2.37-2.38zM31.25 26a.87.87 0 1 0 .86.88.86.86 0 0 0-.85-.87zm-17.08-6.31a.86.86 0 0 0 .85.87h1a.87.87 0 0 0 0-1.74H15a.86.86 0 0 0-.85.87zM15.62 26a.87.87 0 1 0 .86.88.86.86 0 0 0-.85-.87z"/></symbol><symbol id="limit" viewBox="0 0 152 32"><path data-name="&#x424;&#x438;&#x433;&#x443;&#x440;&#x430; 8" class="cls-1" d="M1 3V1h150v2H1zm0 0V1h150v2H1z"/><path data-name="&#x424;&#x438;&#x433;&#x443;&#x440;&#x430; 8 &#x43A;&#x43E;&#x43F;&#x438;&#x44F;" class="cls-1" d="M1 31v-2h150v2H1zm0 0v-2h150v2H1z"/><path data-name="&#x424;&#x438;&#x433;&#x443;&#x440;&#x430; 9" class="cls-2" d="M149 1h2v30h-2V1z"/><path data-name="&#x424;&#x438;&#x433;&#x443;&#x440;&#x430; 9 &#x43A;&#x43E;&#x43F;&#x438;&#x44F;" class="cls-2" d="M1 1h2v30H1V1z"/><path data-name="350 &#x43A;&#x43C;/&#x441;&#x443;&#x442;&#x43A;&#x438;" class="cls-2" d="M31.483 21.35a3.126 3.126 0 0 0 1.085-.585 2.289 2.289 0 0 0 .637-.884 2.925 2.925 0 0 0 .208-1.111 2.268 2.268 0 0 0-.461-1.469 2.548 2.548 0 0 0-1.164-.819 2.255 2.255 0 0 0 .891-.754 1.914 1.914 0 0 0 .344-1.118 2.671 2.671 0 0 0-.175-.982 2.094 2.094 0 0 0-.533-.78 2.446 2.446 0 0 0-.9-.513 4.107 4.107 0 0 0-1.3-.182 4.028 4.028 0 0 0-.767.071 4.494 4.494 0 0 0-.682.189 5.505 5.505 0 0 0-.579.247 4.627 4.627 0 0 0-.442.247l.572 1.17a4.619 4.619 0 0 1 .806-.4 2.874 2.874 0 0 1 1.04-.175 2.008 2.008 0 0 1 .52.065 1.215 1.215 0 0 1 .436.208 1.086 1.086 0 0 1 .305.364 1.125 1.125 0 0 1 .117.533 1.176 1.176 0 0 1-.156.637 1.211 1.211 0 0 1-.4.4 1.658 1.658 0 0 1-.552.208 3.22 3.22 0 0 1-.605.059h-.65v1.274h.522a4.794 4.794 0 0 1 .839.071 2.185 2.185 0 0 1 .7.247 1.417 1.417 0 0 1 .2 2.236 2.233 2.233 0 0 1-1.482.4 4.35 4.35 0 0 1-1.287-.163 6.416 6.416 0 0 1-.793-.292l-.312 1.339a2.346 2.346 0 0 0 .416.162q.273.086.605.156t.7.117a5.981 5.981 0 0 0 .721.046 5.071 5.071 0 0 0 1.576-.219zm8.274-2.015a1.182 1.182 0 0 1-.332.449 1.607 1.607 0 0 1-.591.305 3.009 3.009 0 0 1-.871.111 4.535 4.535 0 0 1-1.255-.15 5.517 5.517 0 0 1-.786-.279l-.3 1.326a2.574 2.574 0 0 0 .39.143q.26.078.591.149t.7.124a5.145 5.145 0 0 0 .715.052 4.867 4.867 0 0 0 1.521-.215 3.076 3.076 0 0 0 1.079-.591 2.348 2.348 0 0 0 .637-.9 3.033 3.033 0 0 0 .208-1.131 2.62 2.62 0 0 0-.917-2.113 4.761 4.761 0 0 0-2.84-.877 13.2 13.2 0 0 0 .097-.988 520.26 520.26 0 0 1 .072-1.066h3.263v-1.326h-4.6q-.052 1.131-.13 2.255t-.221 2.373a11.278 11.278 0 0 1 1.787.117 3.546 3.546 0 0 1 1.131.351 1.372 1.372 0 0 1 .592.572 1.7 1.7 0 0 1 .169.767 1.414 1.414 0 0 1-.109.542zm9.152-5.967a2.64 2.64 0 0 0-2.3-1.215 2.709 2.709 0 0 0-1.307.312 2.818 2.818 0 0 0-.988.91 4.462 4.462 0 0 0-.624 1.475 8.5 8.5 0 0 0-.214 2.009 6.151 6.151 0 0 0 .832 3.49 2.785 2.785 0 0 0 4.6 0 7.738 7.738 0 0 0 .001-6.981zm-.871 4.8a4.472 4.472 0 0 1-.254 1.059 1.862 1.862 0 0 1-.461.709 1.025 1.025 0 0 1-.715.26 1.05 1.05 0 0 1-.722-.26 1.816 1.816 0 0 1-.468-.709 4.3 4.3 0 0 1-.247-1.059 12.176 12.176 0 0 1 0-2.626 4.3 4.3 0 0 1 .247-1.06 1.8 1.8 0 0 1 .468-.708 1.045 1.045 0 0 1 .722-.26 1.02 1.02 0 0 1 .715.26 1.85 1.85 0 0 1 .461.708 4.469 4.469 0 0 1 .254 1.06 11.09 11.09 0 0 1 0 2.63zm14.989 3.2q-.417-.677-.917-1.359t-1.046-1.313q-.546-.63-1.112-1.183a12.045 12.045 0 0 0-1.111-.968q.493-.482 1.007-1.014t1.021-1.073q.507-.539.988-1.072t.91-1.027H60.8q-.339.376-.754.845t-.878.968q-.462.5-.929.988t-.9.917v-3.718h-1.638v9.009h1.638v-4.043a9.4 9.4 0 0 1 1.027.832q.519.48 1.007 1.014t.93 1.105q.441.572.78 1.092h1.937zm2.248-9.009q-.12.936-.225 2.041t-.192 2.281q-.085 1.178-.159 2.373t-.126 2.314h1.612q.054-1.573.126-3.237t.219-3.224c.1.19.208.427.338.708l.416.9q.221.48.448 1l.442 1.007q.215.488.4.917c.121.286.225.528.312.728h1.222l.312-.722q.182-.421.4-.91t.442-1.007q.228-.52.449-1.008t.416-.9c.13-.278.242-.516.338-.715q.145 1.56.218 3.224t.126 3.237h1.612q-.053-1.119-.126-2.295t-.158-2.34q-.087-1.163-.192-2.275t-.225-2.1h-1.476q-.286.494-.637 1.209t-.715 1.5q-.364.788-.715 1.6t-.65 1.5q-.3-.69-.657-1.5t-.721-1.6q-.365-.786-.715-1.5t-.637-1.209h-1.515zm16.237-1.781h-1.584l-4.4 12.584h1.612zm6.008 10.926a6.194 6.194 0 0 0 1.45-.357 2.094 2.094 0 0 0 .42-.208l-.44-1.339a5.5 5.5 0 0 1-.85.331 4.679 4.679 0 0 1-1.414.176 2.946 2.946 0 0 1-1.248-.241 2.278 2.278 0 0 1-.858-.676 2.907 2.907 0 0 1-.5-1.033 4.975 4.975 0 0 1-.163-1.313 4.41 4.41 0 0 1 .208-1.417 2.81 2.81 0 0 1 .579-1.014 2.366 2.366 0 0 1 .877-.605 2.936 2.936 0 0 1 1.092-.2 4.36 4.36 0 0 1 1.257.175 3.963 3.963 0 0 1 .89.371l.48-1.339c-.06-.035-.17-.091-.31-.169a3.532 3.532 0 0 0-.56-.221 7.58 7.58 0 0 0-.79-.189 5.715 5.715 0 0 0-1.019-.084 4.752 4.752 0 0 0-1.729.312 3.969 3.969 0 0 0-1.4.916 4.332 4.332 0 0 0-.942 1.476 5.4 5.4 0 0 0-.345 2 6.167 6.167 0 0 0 .3 2 4.125 4.125 0 0 0 .858 1.475 3.605 3.605 0 0 0 1.365.917 5.012 5.012 0 0 0 1.82.312 7.761 7.761 0 0 0 .972-.054zm8.98-4.225c.2-.472.41-.966.61-1.482s.41-1.057.62-1.625.42-1.172.63-1.813h-1.77q-.375 1.3-.81 2.613-.42 1.313-.9 2.47c-.22-.451-.45-.9-.68-1.352s-.44-.893-.64-1.326-.4-.854-.57-1.261-.34-.789-.48-1.144h-1.83c.19.433.4.91.64 1.43s.51 1.064.79 1.631.6 1.151.94 1.749.68 1.191 1.05 1.781a2.624 2.624 0 0 1-.74.9 1.741 1.741 0 0 1-1 .273 2.816 2.816 0 0 1-1.08-.221l-.3 1.352a2.892 2.892 0 0 0 .67.195 4.124 4.124 0 0 0 .78.078 3.566 3.566 0 0 0 1.13-.169 2.741 2.741 0 0 0 .91-.52 4.059 4.059 0 0 0 .75-.891 8.93 8.93 0 0 0 .67-1.267c.2-.461.41-.926.61-1.399zm3.06-4.92v1.417h2.76v7.592h1.66v-7.592h2.76v-1.417h-7.18zm16.4 9.009c-.28-.451-.58-.9-.91-1.359s-.69-.892-1.05-1.313-.74-.814-1.11-1.183a13.034 13.034 0 0 0-1.11-.968c.33-.321.66-.659 1-1.014s.69-.713 1.02-1.073.67-.717.99-1.072.63-.7.91-1.027h-1.96c-.23.251-.48.533-.76.845l-.87.968c-.3.333-.62.663-.93.988s-.61.631-.9.917v-3.718h-1.64v9.009h1.64v-4.043a9.518 9.518 0 0 1 1.03.832c.34.32.68.658 1.01 1.014s.63.723.92 1.105a13.226 13.226 0 0 1 .78 1.092h1.94zm3.19 0c.29-.494.62-1.025.98-1.593s.75-1.139 1.14-1.716.78-1.135 1.19-1.677.78-1.029 1.15-1.462v6.448h1.61v-9.009h-1.34c-.35.364-.72.795-1.12 1.293s-.8 1.016-1.2 1.554-.79 1.077-1.17 1.618-.71 1.047-1.01 1.515v-5.98h-1.62v9.009h1.39z"/><path data-name="&#x424;&#x438;&#x433;&#x443;&#x440;&#x430; 7" class="cls-2" d="M1.991 2.831L2.38.989l148.63 28.18-.39 1.842z"/></symbol><symbol id="mail" viewBox="0 0 22 16"><title>mail</title><path class="cls-1" d="M20.31 0H1.69A1.67 1.67 0 0 0 0 1.64v12.72A1.67 1.67 0 0 0 1.69 16h18.62A1.67 1.67 0 0 0 22 14.36V1.64A1.67 1.67 0 0 0 20.31 0zm-.25 1.22l-8.94 7.41-8.95-7.41h17.89zm.69 13.14a.44.44 0 0 1-.44.43H1.69a.44.44 0 0 1-.44-.43V2.06l9.46 7.84h.51l9.23-7.65v12.11z"/></symbol><symbol id="parking" viewBox="0 0 612 612"><path data-name="Forma 1" class="cls-1" d="M370.25 128H153.5v357h51V357.5h165.75a114.75 114.75 0 1 0 0-229.5zm0 178.5H204.5V179h165.75c35.7 0 63.75 28.05 63.75 63.751S405.949 306.5 370.25 306.5zM536 .5H77C33.65.5.5 33.65.5 77v459c0 43.35 33.15 76.5 76.5 76.5h459c43.35 0 76.5-33.15 76.5-76.5V77C612.5 33.65 579.35.5 536 .5zM561.5 536c0 15.3-10.2 25.5-25.5 25.5H77c-15.3 0-25.5-10.2-25.5-25.5V77c0-15.3 10.2-25.5 25.5-25.5h459c15.3 0 25.5 10.2 25.5 25.5v459z"/></symbol><symbol id="tel" viewBox="0 0 18.02 18"><title>tel</title><path class="cls-1" d="M17.41 13l-2.25-2.24a1.82 1.82 0 0 0-2.57-.13l-.13.13-.1.1c-.4.39-.81.8-1.21 1.21l-.24-.07a5.4 5.4 0 0 1-.51-.27 13.81 13.81 0 0 1-3.41-3.1A7.6 7.6 0 0 1 5.9 6.86l1-1 .26-.26A1.83 1.83 0 0 0 7.37 3l-.17-.17-.77-.76-.33-.33-.36-.35c-.25-.27-.51-.54-.75-.79A1.83 1.83 0 0 0 2.37.48L2.26.6l-.56.56L.87 2a2.79 2.79 0 0 0-.88 1.84 7.25 7.25 0 0 0 .53 3A17.41 17.41 0 0 0 3.63 12a19.21 19.21 0 0 0 6.34 5 9.41 9.41 0 0 0 3.61 1h.24a3 3 0 0 0 2.32-1c.25-.28.52-.55.81-.82l.44-.44a1.82 1.82 0 0 0 .18-2.57zm-.73 2l-.42.42c-.29.28-.59.57-.87.88a2 2 0 0 1-1.75.65 8.39 8.39 0 0 1-3.22-.94 18.3 18.3 0 0 1-6-4.69A16.49 16.49 0 0 1 1.48 6.5a5.81 5.81 0 0 1-.49-2.58 1.74 1.74 0 0 1 .56-1.2l.84-.85.6-.55A.93.93 0 0 1 3.61 1a1 1 0 0 1 .65.31l.73.78.35.35.34.33.76.76a.83.83 0 0 1 0 1.33l-.26.26-1.07 1.11a.78.78 0 0 0-.19.92 8.6 8.6 0 0 0 1.32 2.12 15 15 0 0 0 3.61 3.28c.21.13.41.23.61.32l.33.17a.84.84 0 0 0 .4.11.82.82 0 0 0 .59-.27c.42-.44.86-.87 1.28-1.29l.1-.1a1 1 0 0 1 .64-.31 1 1 0 0 1 .65.31l2.23 2.23a.82.82 0 0 1 0 1.32z"/></symbol></defs><view id="view-car" viewBox="0 0 96.15 50"></view><view id="view-card" viewBox="100 0 69.64 50"></view><view id="view-clock" viewBox="200 0 49.97 50"></view><view id="view-insurance" viewBox="250 0 59.68 50"></view><view id="view-limit" viewBox="350 0 237.5 50"></view><view id="view-mail" viewBox="600 0 68.75 50"></view><view id="view-parking" viewBox="700 0 50 50"></view><view id="view-tel" viewBox="750 0 50.06 50"></view><use id="car" xlink:href="#car" width="96.15" height="50" x="0" y="0"></use><use id="card" xlink:href="#card" width="69.64" height="50" x="100" y="0"></use><use id="clock" xlink:href="#clock" width="49.97" height="50" x="200" y="0"></use><use id="insurance" xlink:href="#insurance" width="59.68" height="50" x="250" y="0"></use><use id="limit" xlink:href="#limit" width="237.5" height="50" x="350" y="0"></use><use id="mail" xlink:href="#mail" width="68.75" height="50" x="600" y="0"></use><use id="parking" xlink:href="#parking" width="50" height="50" x="700" y="0"></use><use id="tel" xlink:href="#tel" width="50.06" height="50" x="750" y="0"></use></svg>